<svg xmlns="http://www.w3.org/2000/svg" xmlns:xlink="http://www.w3.org/1999/xlink" version="1.1" width="385pt" height="185pt" viewBox="0 0 385 185">
<defs>
<clipPath id="clip_0">
<path transform="matrix(1,0,0,-1,0,185)" d="M0 185H385V0H0Z"/>
</clipPath>
</defs>
<g id="layer_1" data-name="Livello 1">
<g clip-path="url(#clip_0)">
<path transform="matrix(1,0,0,-1,18.3046,136.9074)" d="M0 0C-3.126 0-5.669 2.544-5.669 5.67V38.948C-5.669 42.074-3.126 44.618 0 44.618H3.339C6.465 44.618 9.008 42.074 9.008 38.948V14.349H17.089C20.215 14.349 22.758 11.805 22.758 8.679V5.67C22.758 2.544 20.215 0 17.089 0Z"/>
<path transform="matrix(1,0,0,-1,50.3744,114.5031)" d="M0 0C-1.27 0-2.138-.358-2.998-1.237-3.87-2.13-4.26-3.129-4.26-4.478-4.26-5.822-3.873-6.816-3.005-7.701-2.168-8.554-1.241-8.934 0-8.934 1.27-8.934 2.138-8.575 2.996-7.697 3.87-6.804 4.259-5.805 4.259-4.456 4.259-3.111 3.872-2.118 3.004-1.233 2.167-.381 1.24 0 0 0M-.132-22.976C-5.28-22.976-9.716-21.166-13.315-17.597-16.928-14.018-18.76-9.588-18.76-4.434-18.76 .734-16.928 5.171-13.315 8.753-9.715 12.32-5.279 14.13-.132 14.13 2.411 14.13 4.79 13.684 6.965 12.803 7.812 13.291 8.784 13.559 9.796 13.559H12.959C16.085 13.559 18.628 11.015 18.628 7.889V-16.734C18.628-19.86 16.085-22.404 12.959-22.404H9.796C8.788-22.404 7.818-22.138 6.973-21.652 4.795-22.531 2.415-22.976-.132-22.976"/>
<path transform="matrix(1,0,0,-1,98.0165,137.4787)" d="M0 0C-6.404 0-11.919 2.224-16.391 6.609-20.892 11.023-23.175 16.494-23.175 22.869-23.175 29.241-20.894 34.715-16.395 39.136-11.923 43.532-6.407 45.76 0 45.76 4.179 45.76 8.17 44.615 11.864 42.358 15.641 40.049 18.405 37.006 20.079 33.313 20.877 31.55 20.728 29.527 19.679 27.901 18.631 26.275 16.85 25.304 14.915 25.304H11.313C9.307 25.304 7.432 26.38 6.419 28.111 5.895 29.006 5.06 29.755 3.866 30.398 2.558 31.104 1.33 31.433 0 31.433-2.435 31.433-4.342 30.653-6.002 28.98-7.675 27.294-8.455 25.353-8.455 22.869-8.455 20.39-7.677 18.452-6.007 16.773-4.347 15.104-2.438 14.327 0 14.327 1.402 14.327 2.689 14.671 4.052 15.41 5.314 16.094 6.197 16.886 6.753 17.832 7.767 19.559 9.64 20.631 11.642 20.631H15.244C17.177 20.631 18.957 19.661 20.006 18.037 21.055 16.412 21.207 14.392 20.412 12.63 18.723 8.888 15.916 5.801 12.067 3.455 8.309 1.163 4.249 0 0 0"/>
<path transform="matrix(1,0,0,-1,118.0707,136.9074)" d="M0 0C-3.126 0-5.669 2.544-5.669 5.67V30.293C-5.669 33.419-3.126 35.963 0 35.963H3.141C3.762 35.963 4.379 35.858 4.963 35.66 6.463 36.214 8.138 36.527 9.959 36.596L10.17 36.6C11.644 36.6 13.041 36.036 14.103 35.013 15.206 33.95 15.839 32.462 15.839 30.93V27.613C15.839 24.669 13.54 22.186 10.604 21.961 10.117 21.923 9.472 21.815 9.168 21.515 9.057 21.403 8.832 20.866 8.832 19.706V5.67C8.832 2.544 6.289 0 3.163 0Z"/>
<path transform="matrix(1,0,0,-1,143.1991,137.4787)" d="M0 0C-5.117 0-9.524 1.817-13.097 5.402-16.666 8.979-18.475 13.4-18.475 18.542-18.475 23.697-16.666 28.126-13.097 31.705-9.523 35.288-5.117 37.105 0 37.105 5.149 37.105 9.568 35.286 13.136 31.699 16.68 28.132 18.483 23.726 18.497 18.599 18.518 17.962 18.476 17.237 18.37 16.524 18.27 15.848 18.045 15.196 17.716 14.603 17.764 13.86 17.667 13.11 17.421 12.396 16.155 8.704 13.898 5.682 10.713 3.413 7.531 1.148 3.927 0 0 0"/>
<path transform="matrix(1,0,0,-1,172.8964,114.5031)" d="M0 0C-1.27 0-2.138-.358-2.997-1.236-3.871-2.13-4.261-3.129-4.261-4.478-4.261-5.822-3.874-6.815-3.006-7.699-2.146-8.576-1.275-8.934 0-8.934 1.269-8.934 2.138-8.575 2.998-7.695 3.87-6.804 4.259-5.805 4.259-4.456 4.259-3.111 3.872-2.117 3.005-1.233 2.144-.357 1.273 0 0 0M-.133-22.976C-5.282-22.976-9.718-21.166-13.316-17.597-16.929-14.016-18.761-9.587-18.761-4.434-18.761 .733-16.929 5.17-13.315 8.752-9.718 12.32-5.282 14.13-.133 14.13 2.41 14.13 4.788 13.684 6.963 12.803 7.811 13.291 8.783 13.559 9.795 13.559H12.959C16.085 13.559 18.629 11.015 18.629 7.889V-16.734C18.629-19.86 16.085-22.404 12.959-22.404H9.795C8.787-22.404 7.817-22.139 6.972-21.652 4.794-22.531 2.413-22.976-.133-22.976"/>
<path transform="matrix(1,0,0,-1,194.5097,136.9074)" d="M0 0C-3.125 0-5.669 2.544-5.669 5.67V21.807C-8.589 22.033-10.896 24.481-10.896 27.459V30.293C-10.896 33.271-8.589 35.719-5.669 35.945V38.904C-5.669 42.03-3.125 44.574 0 44.574H3.163C6.289 44.574 8.833 42.03 8.833 38.904V35.963H8.984C12.11 35.963 14.654 33.419 14.654 30.293V27.459C14.654 24.333 12.11 21.789 8.984 21.789H8.833V5.67C8.833 2.544 6.289 0 3.163 0Z"/>
<path transform="matrix(1,0,0,-1,206.8095,136.9074)" d="M0 0C-3.126 0-5.67 2.544-5.67 5.67V30.293C-5.67 30.819-5.597 31.339-5.455 31.839-5.582 32.313-5.647 32.805-5.647 33.302V38.948C-5.647 42.074-3.104 44.618 .022 44.618H3.163C6.289 44.618 8.833 42.074 8.833 38.948V33.302C8.833 32.79 8.764 32.284 8.63 31.798 8.764 31.311 8.833 30.805 8.833 30.293V5.67C8.833 2.544 6.289 0 3.163 0Z"/>
<path transform="matrix(1,0,0,-1,223.5692,136.9074)" d="M0 0C-2.287 0-4.338 1.362-5.226 3.472L-15.592 28.094C-16.332 29.847-16.145 31.842-15.09 33.43-14.036 35.016-12.271 35.963-10.367 35.963H-6.911C-4.602 35.963-2.542 34.581-1.665 32.443L1.821 23.937 5.296 32.438C6.171 34.579 8.23 35.963 10.544 35.963H13.904C15.808 35.963 17.573 35.016 18.627 33.43 19.682 31.842 19.869 29.847 19.128 28.092L8.762 3.471C7.875 1.362 5.824 0 3.537 0Z"/>
<path transform="matrix(1,0,0,-1,252.3437,137.4787)" d="M0 0C-5.118 0-9.524 1.817-13.098 5.402-16.666 8.979-18.476 13.4-18.476 18.542-18.476 23.697-16.665 28.126-13.096 31.705-9.524 35.288-5.118 37.105 0 37.105 5.15 37.105 9.57 35.286 13.137 31.698 16.681 28.134 18.484 23.727 18.498 18.6 18.518 17.97 18.477 17.249 18.372 16.537 18.273 15.855 18.049 15.199 17.717 14.602 17.765 13.86 17.667 13.11 17.423 12.396 16.155 8.704 13.898 5.682 10.714 3.413 7.532 1.148 3.928 0 0 0"/>
<path transform="matrix(1,0,0,-1,303.4784,136.9074)" d="M0 0C-3.126 0-5.67 2.544-5.67 5.67V15.617H-11.528V5.67C-11.528 2.544-14.072 0-17.198 0H-20.537C-23.663 0-26.207 2.544-26.207 5.67V38.948C-26.207 42.074-23.663 44.618-20.537 44.618H-17.198C-14.072 44.618-11.528 42.074-11.528 38.948V29.967H-5.67V38.948C-5.67 42.074-3.126 44.618 0 44.618H3.339C6.465 44.618 9.009 42.074 9.009 38.948V5.67C9.009 2.544 6.465 0 3.339 0Z"/>
<path transform="matrix(1,0,0,-1,323.6649,137.4787)" d="M0 0C-4.874 0-8.849 1.493-11.813 4.437-14.79 7.389-16.301 11.344-16.301 16.191V30.864C-16.301 33.99-13.757 36.534-10.631 36.534H-7.469C-4.343 36.534-1.799 33.99-1.799 30.864V16.258C-1.799 15.367-1.656 14.706-1.407 14.444-1.23 14.258-.749 14.151-.088 14.151 1.038 14.151 1.279 14.437 1.382 14.559 1.593 14.808 2.084 15.624 2.084 17.795V30.864C2.084 33.99 4.628 36.534 7.754 36.534H10.917C14.043 36.534 16.587 33.99 16.587 30.864V6.241C16.587 3.115 14.043 .571 10.917 .571H7.951C7.163 .571 6.401 .73 5.701 1.033 3.954 .347 2.044 0 0 0"/>
<path transform="matrix(1,0,0,-1,353.6034,114.4152)" d="M0 0C-1.259 0-2.123-.357-2.982-1.233-3.851-2.117-4.236-3.11-4.236-4.456-4.236-5.805-3.848-6.805-2.975-7.697-2.116-8.575-1.255-8.934 0-8.934 1.274-8.934 2.146-8.576 3.005-7.7 3.871-6.816 4.258-5.822 4.258-4.478 4.258-3.129 3.869-2.129 2.996-1.236 2.138-.358 1.27 0 0 0M.373-23.063C-2.233-23.063-4.67-22.604-6.896-21.698-7.757-22.211-8.753-22.492-9.797-22.492H-12.96C-16.086-22.492-18.63-19.948-18.63-16.822V16.456C-18.63 19.582-16.086 22.125-12.96 22.125H-9.797C-6.671 22.125-4.127 19.582-4.127 16.456V13.551C-2.693 13.877-1.19 14.042 .373 14.042 5.504 14.042 9.903 12.217 13.45 8.616 16.974 5.039 18.761 .619 18.761-4.521 18.761-9.647 16.975-14.061 13.451-17.638 9.903-21.238 5.503-23.063 .373-23.063"/>
<path transform="matrix(1,0,0,-1,18.3046,134.0724)" d="M0 0C-1.565 0-2.834 1.27-2.834 2.835V36.113C-2.834 37.678-1.565 38.948 0 38.948H3.339C4.904 38.948 6.173 37.678 6.173 36.113V8.679H17.089C18.655 8.679 19.924 7.409 19.924 5.844V2.835C19.924 1.27 18.655 0 17.089 0Z" fill="#f36e2c"/>
<path transform="matrix(1,0,0,-1,50.3744,111.6681)" d="M0 0C-2.033 0-3.63-.664-5.024-2.09-6.417-3.515-7.094-5.223-7.094-7.312-7.094-9.4-6.418-11.104-5.028-12.521-3.652-13.923-2.008-14.604 0-14.604 2.034-14.604 3.63-13.939 5.023-12.514 6.417-11.089 7.094-9.381 7.094-7.291 7.094-5.203 6.418-3.5 5.028-2.083 3.652-.682 2.007 0 0 0M-.132-22.976C-4.506-22.976-8.27-21.442-11.32-18.419-14.376-15.391-15.926-11.639-15.926-7.269-15.926-2.884-14.376 .875-11.32 3.904-8.27 6.927-4.506 8.46-.132 8.46 2.671 8.46 5.2 7.841 7.429 6.612 7.936 7.381 8.807 7.889 9.796 7.889H12.959C14.525 7.889 15.794 6.619 15.794 5.054V-19.569C15.794-21.135 14.525-22.404 12.959-22.404H9.796C8.811-22.404 7.942-21.9 7.435-21.137 5.21-22.356 2.677-22.976-.132-22.976" fill="#f36e2c"/>
<path transform="matrix(1,0,0,-1,98.0165,134.6437)" d="M0 0C-5.637 0-10.483 1.951-14.406 5.798-18.344 9.659-20.34 14.449-20.34 20.034-20.34 25.617-18.345 30.41-14.408 34.279-10.485 38.135-5.637 40.09 0 40.09 3.649 40.09 7.144 39.085 10.385 37.104 13.67 35.097 16.062 32.474 17.497 29.309 17.894 28.431 17.819 27.412 17.297 26.603 16.775 25.793 15.878 25.304 14.915 25.304H11.313C10.306 25.304 9.375 25.838 8.866 26.707 8.071 28.064 6.876 29.161 5.211 30.059 3.498 30.983 1.794 31.433 0 31.433-3.196 31.433-5.817 30.356-8.015 28.142-10.218 25.921-11.289 23.269-11.289 20.034-11.289 16.801-10.219 14.153-8.017 11.939-5.82 9.73-3.197 8.657 0 8.657 1.866 8.657 3.633 9.123 5.403 10.083 7.132 11.02 8.373 12.157 9.197 13.562 9.707 14.429 10.636 14.961 11.642 14.961H15.244C16.207 14.961 17.103 14.473 17.625 13.664 18.147 12.855 18.224 11.837 17.828 10.96 16.379 7.749 13.944 5.084 10.591 3.04 7.284 1.022 3.72 0 0 0" fill="#f36e2c"/>
<path transform="matrix(1,0,0,-1,118.0707,134.0724)" d="M0 0C-1.565 0-2.834 1.27-2.834 2.835V27.458C-2.834 29.023-1.565 30.293 0 30.293H3.141C3.794 30.293 4.396 30.071 4.875 29.7 6.337 30.442 8.072 30.854 10.065 30.928 10.1 30.929 10.135 30.93 10.17 30.93 10.902 30.93 11.607 30.646 12.137 30.136 12.691 29.602 13.004 28.864 13.004 28.095V24.778C13.004 23.297 11.864 22.065 10.387 21.952 8.971 21.843 7.92 21.433 7.175 20.696 6.391 19.903 5.998 18.644 5.998 16.871V2.835C5.998 1.27 4.729 0 3.163 0Z" fill="#f36e2c"/>
<path transform="matrix(1,0,0,-1,148.6342,114.4542)" d="M0 0C-.188 .253-.397 .498-.625 .735-1.964 2.137-3.49 2.786-5.435 2.786-7.365 2.786-8.892 2.13-10.238 .72-10.456 .488-10.657 .249-10.84 0ZM-11.138-8.504C-10.875-8.912-10.565-9.302-10.205-9.675-8.846-11.075-7.294-11.729-5.325-11.729-3.937-11.729-2.773-11.404-1.769-10.734-.965-10.199-.285-9.464 .294-8.504ZM-5.435-20.189C-9.772-20.189-13.503-18.652-16.525-15.621-19.544-12.594-21.075-8.846-21.075-4.482-21.075-.104-19.544 3.65-16.525 6.679-13.503 9.709-9.772 11.246-5.435 11.246-1.068 11.246 2.675 9.708 5.691 6.676 8.689 3.658 10.216-.079 10.227-4.433 10.244-4.982 10.212-5.537 10.131-6.084 10.033-6.741 9.715-7.317 9.259-7.743 9.505-8.364 9.527-9.062 9.305-9.708 8.234-12.83 6.326-15.385 3.633-17.303 .942-19.218-2.108-20.189-5.435-20.189" fill="#f36e2c"/>
<path transform="matrix(1,0,0,-1,172.8964,111.6681)" d="M0 0C-2.033 0-3.63-.664-5.024-2.09-6.418-3.515-7.095-5.223-7.095-7.312-7.095-9.401-6.419-11.104-5.028-12.521-3.633-13.942-2.036-14.604 0-14.604 2.033-14.604 3.629-13.939 5.024-12.513 6.416-11.089 7.093-9.381 7.093-7.291 7.093-5.203 6.417-3.499 5.028-2.083 3.632-.662 2.034 0 0 0M-.133-22.976C-4.508-22.976-8.272-21.442-11.32-18.419-14.376-15.39-15.926-11.639-15.926-7.269-15.926-2.885-14.376 .874-11.32 3.904-8.272 6.927-4.508 8.46-.133 8.46 2.67 8.46 5.199 7.841 7.427 6.613 7.934 7.382 8.805 7.889 9.795 7.889H12.959C14.525 7.889 15.794 6.619 15.794 5.054V-19.569C15.794-21.135 14.525-22.404 12.959-22.404H9.795C8.809-22.404 7.941-21.9 7.433-21.138 5.209-22.356 2.676-22.976-.133-22.976" fill="#f36e2c"/>
<path transform="matrix(1,0,0,-1,194.5097,134.0724)" d="M0 0C-1.565 0-2.834 1.27-2.834 2.835V21.789H-5.227C-6.792 21.789-8.062 23.059-8.062 24.624V27.458C-8.062 29.023-6.792 30.293-5.227 30.293H-2.834V36.069C-2.834 37.634-1.565 38.904 0 38.904H3.163C4.729 38.904 5.998 37.634 5.998 36.069V30.293H8.984C10.55 30.293 11.819 29.023 11.819 27.458V24.624C11.819 23.059 10.55 21.789 8.984 21.789H5.998V2.835C5.998 1.27 4.729 0 3.163 0Z" fill="#f36e2c"/>
<path transform="matrix(1,0,0,-1,206.8095,134.0724)" d="M0 0C-1.565 0-2.835 1.27-2.835 2.835V27.458C-2.835 28.019-2.672 28.541-2.392 28.98-2.658 29.412-2.813 29.922-2.813 30.467V36.113C-2.813 37.678-1.543 38.948 .022 38.948H3.163C4.729 38.948 5.998 37.678 5.998 36.113V30.467C5.998 29.914 5.84 29.398 5.566 28.962 5.84 28.526 5.998 28.011 5.998 27.458V2.835C5.998 1.27 4.729 0 3.163 0Z" fill="#f36e2c"/>
<path transform="matrix(1,0,0,-1,223.5692,134.0724)" d="M0 0C-1.141 0-2.17 .684-2.612 1.735L-12.979 26.358C-13.349 27.233-13.254 28.235-12.729 29.026-12.203 29.817-11.316 30.293-10.367 30.293H-6.911C-5.761 30.293-4.725 29.598-4.288 28.533L1.824 13.62 7.92 28.53C8.355 29.597 9.393 30.293 10.544 30.293H13.904C14.854 30.293 15.74 29.817 16.266 29.026 16.791 28.235 16.886 27.233 16.517 26.358L6.149 1.735C5.707 .684 4.678 0 3.537 0Z" fill="#f36e2c"/>
<path transform="matrix(1,0,0,-1,257.7792,114.4542)" d="M0 0C-.188 .253-.396 .498-.625 .734-1.964 2.137-3.49 2.786-5.436 2.786-7.365 2.786-8.892 2.13-10.238 .72-10.456 .488-10.657 .249-10.84 0ZM-11.138-8.504C-10.876-8.912-10.565-9.302-10.205-9.675-8.847-11.075-7.294-11.729-5.325-11.729-3.937-11.729-2.773-11.404-1.769-10.734-.965-10.198-.284-9.464 .294-8.504ZM-5.436-20.189C-9.772-20.189-13.504-18.652-16.525-15.621-19.545-12.594-21.076-8.846-21.076-4.482-21.076-.104-19.545 3.65-16.524 6.679-13.504 9.709-9.772 11.246-5.436 11.246-1.067 11.246 2.676 9.708 5.691 6.675 8.689 3.659 10.216-.078 10.228-4.433 10.244-4.977 10.212-5.529 10.132-6.077 10.036-6.737 9.718-7.316 9.259-7.743 9.506-8.365 9.527-9.062 9.306-9.708 8.234-12.83 6.326-15.385 3.634-17.303 .943-19.218-2.108-20.189-5.436-20.189" fill="#f36e2c"/>
<path transform="matrix(1,0,0,-1,303.4784,134.0724)" d="M0 0C-1.565 0-2.835 1.27-2.835 2.835V15.617H-14.363V2.835C-14.363 1.27-15.633 0-17.198 0H-20.537C-22.103 0-23.372 1.27-23.372 2.835V36.113C-23.372 37.678-22.103 38.948-20.537 38.948H-17.198C-15.633 38.948-14.363 37.678-14.363 36.113V24.297H-2.835V36.113C-2.835 37.678-1.565 38.948 0 38.948H3.339C4.904 38.948 6.174 37.678 6.174 36.113V2.835C6.174 1.27 4.904 0 3.339 0Z" fill="#f36e2c"/>
<path transform="matrix(1,0,0,-1,323.6649,134.6437)" d="M0 0C-4.099 0-7.401 1.216-9.816 3.613-12.237 6.014-13.466 9.293-13.466 13.356V28.029C-13.466 29.595-12.196 30.864-10.631 30.864H-7.469C-5.903 30.864-4.634 29.595-4.634 28.029V13.423C-4.634 11.717-4.25 10.484-3.461 9.655-2.709 8.865-1.605 8.481-.088 8.481 2.1 8.481 3.034 9.287 3.547 9.894 4.457 10.971 4.919 12.676 4.919 14.96V28.029C4.919 29.595 6.188 30.864 7.754 30.864H10.917C12.482 30.864 13.752 29.595 13.752 28.029V3.406C13.752 1.841 12.482 .571 10.917 .571H7.951C7.157 .571 6.438 .898 5.924 1.425 4.203 .485 2.207 0 0 0" fill="#f36e2c"/>
<path transform="matrix(1,0,0,-1,353.6034,111.5802)" d="M0 0C-2.021 0-3.611-.662-5.006-2.083-6.396-3.499-7.071-5.203-7.071-7.291-7.071-9.381-6.395-11.089-5.002-12.514-3.608-13.939-2.019-14.604 0-14.604 2.035-14.604 3.633-13.942 5.028-12.521 6.417-11.104 7.093-9.4 7.093-7.312 7.093-5.223 6.416-3.515 5.023-2.09 3.629-.664 2.032 0 0 0M.373-23.063C-2.51-23.063-5.107-22.425-7.393-21.159-7.894-21.96-8.783-22.492-9.797-22.492H-12.96C-14.525-22.492-15.795-21.223-15.795-19.657V13.621C-15.795 15.186-14.525 16.456-12.96 16.456H-9.797C-8.231 16.456-6.962 15.186-6.962 13.621V6.704C-4.783 7.812-2.33 8.372 .373 8.372 4.716 8.372 8.437 6.831 11.431 3.792 14.413 .765 15.926-2.986 15.926-7.356 15.926-11.713 14.413-15.456 11.432-18.483 8.437-21.522 4.716-23.063 .373-23.063" fill="#f36e2c"/>
<path transform="matrix(1,0,0,-1,18.3046,131.2374)" d="M0 0V33.278H1.669 3.339V3.009H17.089V1.516 0Z" fill="#ffffff"/>
<path transform="matrix(1,0,0,-1,50.3744,108.8331)" d="M0 0C-2.783 0-5.133-.981-7.051-2.943-8.97-4.905-9.929-7.307-9.929-10.147-9.929-12.989-8.97-15.387-7.051-17.342-5.133-19.296-2.783-20.273 0-20.273 2.782-20.273 5.132-19.293 7.051-17.33 8.969-15.368 9.928-12.967 9.928-10.126 9.928-7.285 8.969-4.887 7.051-2.933 5.132-.978 2.782 0 0 0M-.132-22.976C-3.749-22.976-6.813-21.73-9.324-19.241-11.836-16.752-13.091-13.706-13.091-10.104-13.091-6.487-11.836-3.434-9.324-.944-6.813 1.545-3.749 2.79-.132 2.79 3.529 2.79 6.567 1.538 8.983-.966L9.796-1.911V2.219H12.959V-22.404H11.378 9.796V-18.297C9.547-18.634 9.276-18.948 8.983-19.241 6.567-21.73 3.529-22.976-.132-22.976" fill="#ffffff"/>
<path transform="matrix(1,0,0,-1,118.0707,106.6144)" d="M0 0H1.56 3.141V-3.536C3.419-2.937 3.727-2.424 4.063-1.999 5.367-.345 7.402 .534 10.17 .637V-2.68C8.076-2.841 6.414-3.529 5.184-4.744 3.836-6.106 3.163-8.054 3.163-10.587V-24.623H1.582 0Z" fill="#ffffff"/>
<path transform="matrix(1,0,0,-1,113.2607,122.5177)" d="M0 0C-1.216-2.694-3.258-4.916-6.128-6.666-8.999-8.416-12.037-9.291-15.244-9.291-20.135-9.291-24.275-7.629-27.665-4.305-31.055-.98-32.75 3.09-32.75 7.908-32.75 12.726-31.055 16.8-27.665 20.132-24.275 23.463-20.135 25.129-15.244 25.129-12.11 25.129-9.141 24.273-6.337 22.559-3.533 20.846-1.53 18.663-.33 16.013H-3.932C-4.986 17.814-6.571 19.286-8.688 20.428-10.804 21.57-12.989 22.142-15.244 22.142-19.198 22.142-22.54 20.765-25.271 18.012-28.002 15.259-29.368 11.891-29.368 7.908-29.368 3.925-28.002 .561-25.271-2.186-22.54-4.931-19.198-6.304-15.244-6.304-12.916-6.304-10.664-5.714-8.49-4.535-6.315-3.356-4.686-1.845-3.603 0Z" fill="#ffffff"/>
<path transform="matrix(1,0,0,-1,152.7538,117.2892)" d="M0 0C-.308 2.138-1.208 3.982-2.702 5.535-4.562 7.482-6.846 8.456-9.555 8.456-12.249 8.456-14.534 7.475-16.408 5.513-17.857 3.976-18.758 2.138-19.109 0ZM-9.555-14.52C-13.128-14.52-16.155-13.274-18.637-10.785-21.12-8.296-22.36-5.25-22.36-1.647-22.36 1.969-21.12 5.022-18.637 7.512-16.155 10.001-13.128 11.246-9.555 11.246-5.953 11.246-2.914 10.001-.439 7.512 2.035 5.022 3.273 1.969 3.273-1.647 3.288-2.043 3.266-2.438 3.207-2.834H-19.131C-18.912-5.133-17.989-7.125-16.364-8.809-14.475-10.756-12.168-11.729-9.445-11.729-7.498-11.729-5.788-11.239-4.316-10.258-2.844-9.277-1.662-7.842-.769-5.953H2.504C1.625-8.516 .081-10.584-2.13-12.158-4.342-13.732-6.816-14.52-9.555-14.52" fill="#ffffff"/>
<path transform="matrix(1,0,0,-1,172.8964,108.8331)" d="M0 0C-2.783 0-5.133-.981-7.051-2.943-8.971-4.905-9.93-7.307-9.93-10.147-9.93-12.989-8.971-15.387-7.051-17.342-5.133-19.296-2.783-20.273 0-20.273 2.781-20.273 5.131-19.293 7.051-17.33 8.969-15.368 9.928-12.967 9.928-10.126 9.928-7.285 8.969-4.887 7.051-2.933 5.131-.978 2.781 0 0 0M-.133-22.976C-3.75-22.976-6.814-21.73-9.324-19.241-11.836-16.752-13.092-13.706-13.092-10.104-13.092-6.487-11.836-3.434-9.324-.944-6.814 1.545-3.75 2.79-.133 2.79 3.527 2.79 6.566 1.538 8.982-.966L9.795-1.911V2.219H12.959V-22.404H11.377 9.795V-18.297C9.547-18.634 9.275-18.948 8.982-19.241 6.566-21.73 3.527-22.976-.133-22.976" fill="#ffffff"/>
<path transform="matrix(1,0,0,-1,194.5097,131.2374)" d="M0 0V21.789H-5.227V24.623H0V33.234H3.163V24.623H8.984V21.789H3.163V0Z" fill="#ffffff"/>
<path transform="matrix(1,0,0,-1,0,185)" d="M206.832 87.04H209.973V81.394H206.832ZM206.809 78.386H208.392 209.973V53.763H208.392 206.809Z" fill="#ffffff"/>
<path transform="matrix(1,0,0,-1,282.9413,97.9596)" d="M0 0H1.669 3.339V-14.651H20.537V0H22.207 23.876V-33.278H22.207 20.537V-17.661H3.339V-33.278H1.669 0Z" fill="#ffffff"/>
<path transform="matrix(1,0,0,-1,261.8993,117.2892)" d="M0 0C-.308 2.138-1.208 3.982-2.702 5.535-4.562 7.482-6.847 8.456-9.556 8.456-12.25 8.456-14.534 7.475-16.408 5.513-17.858 3.976-18.759 2.138-19.11 0ZM-9.556-14.52C-13.128-14.52-16.156-13.274-18.638-10.785-21.12-8.296-22.361-5.25-22.361-1.647-22.361 1.969-21.12 5.022-18.638 7.512-16.156 10.001-13.128 11.246-9.556 11.246-5.953 11.246-2.914 10.001-.439 7.512 2.035 5.022 3.272 1.969 3.272-1.647 3.287-2.043 3.265-2.438 3.207-2.834H-19.132C-18.912-5.133-17.99-7.125-16.364-8.809-14.476-10.756-12.169-11.729-9.445-11.729-7.498-11.729-5.788-11.239-4.316-10.258-2.845-9.277-1.662-7.842-.77-5.953H2.504C1.625-8.516 .08-10.584-2.131-12.158-4.342-13.732-6.817-14.52-9.556-14.52" fill="#ffffff"/>
<path transform="matrix(1,0,0,-1,213.2021,106.6144)" d="M0 0H1.717 3.456L12.207-21.351H12.183L20.911 0H22.58 24.271L13.904-24.623H12.146 10.367Z" fill="#ffffff"/>
<path transform="matrix(1,0,0,-1,316.1962,121.220798)" d="M0 0C0-2.446 .651-4.354 1.955-5.723 3.259-7.092 5.066-7.776 7.381-7.776 9.885-7.776 11.817-6.971 13.18-5.36 14.541-3.749 15.223-1.45 15.223 1.537V14.606H16.804 18.386V-10.017H16.914 15.42V-6.062C15.171-6.517 14.878-6.956 14.541-7.381 12.843-9.519 10.485-10.588 7.469-10.588 4.13-10.588 1.523-9.658-.351-7.798-2.226-5.938-3.162-3.361-3.162-.066V14.606H-1.581 0Z" fill="#ffffff"/>
<path transform="matrix(1,0,0,-1,353.6034,129.0187)" d="M0 0C2.782 0 5.132 .978 7.051 2.932 8.969 4.887 9.928 7.284 9.928 10.126 9.928 12.967 8.969 15.368 7.051 17.33 5.132 19.292 2.782 20.273 0 20.273-2.768 20.273-5.11 19.296-7.029 17.341-8.947 15.387-9.906 12.988-9.906 10.147-9.906 7.307-8.947 4.905-7.029 2.943-5.11 .98-2.768 0 0 0M-12.96 31.059H-11.378-9.797V18.253L-8.896 19.241C-6.436 21.73-3.347 22.976 .373 22.976 3.946 22.976 6.959 21.73 9.412 19.241 11.864 16.752 13.091 13.698 13.091 10.082 13.091 6.479 11.864 3.434 9.412 .944 6.959-1.545 3.946-2.79 .373-2.79-3.347-2.79-6.436-1.538-8.896 .966L-9.797 1.977V-2.219H-12.96Z" fill="#ffffff"/>
<path transform="matrix(1,0,0,-1,173.454,62.7912)" stroke-width="4" stroke-linecap="butt" stroke-miterlimit="10" stroke-linejoin="miter" fill="none" stroke="#000000" d="M0 0C.033-.124-.022 .078-.034 .117-2.09 7.346-.383 15.277 5.144 20.76 13.384 28.934 26.996 28.573 35.547 19.953 44.099 11.333 44.351-2.282 36.11-10.457 27.87-18.63 17.304-17.766 5.44-9.914 4.452-9.26-3.683-4.11-3.339-4.343"/>
<path transform="matrix(1,0,0,-1,180.767,82.6603)" d="M0 0-15.176 9.163C-16.129 9.738-16.473 10.968-15.94 11.896-15.407 12.825-14.191 13.114-13.238 12.539L1.937 3.375C2.89 2.8 3.234 1.57 2.701 .642 2.168-.287 .953-.575 0 0"/>
<path transform="matrix(1,0,0,-1,180.767,82.6603)" stroke-width="1" stroke-linecap="butt" stroke-miterlimit="10" stroke-linejoin="miter" fill="none" stroke="#000000" d="M0 0-15.176 9.163C-16.129 9.738-16.473 10.968-15.94 11.896-15.407 12.825-14.191 13.114-13.238 12.539L1.937 3.375C2.89 2.8 3.234 1.57 2.701 .642 2.168-.287 .953-.575 0 0Z"/>
<path transform="matrix(1,0,0,-1,176.4394,86.9122)" d="M0 0-14.247 8.601C-15.218 9.188-15.569 10.443-15.026 11.39-14.482 12.337-13.242 12.631-12.27 12.044L1.976 3.443C2.948 2.856 3.299 1.602 2.755 .654 2.212-.292 .972-.587 0 0"/>
<path transform="matrix(1,0,0,-1,176.4394,86.9122)" stroke-width="1" stroke-linecap="butt" stroke-miterlimit="10" stroke-linejoin="miter" fill="none" stroke="#000000" d="M0 0-14.247 8.601C-15.218 9.188-15.569 10.443-15.026 11.39-14.482 12.337-13.242 12.631-12.27 12.044L1.976 3.443C2.948 2.856 3.299 1.602 2.755 .654 2.212-.292 .972-.587 0 0Z"/>
<path transform="matrix(1,0,0,-1,168.7372,88.2018)" d="M0 0-6.377 3.85C-7.22 4.359-7.524 5.448-7.053 6.269-6.582 7.09-5.506 7.346-4.663 6.837L1.714 2.987C2.557 2.478 2.861 1.389 2.39 .568 1.918-.253 .843-.509 0 0"/>
<path transform="matrix(1,0,0,-1,168.7372,88.2018)" stroke-width="1" stroke-linecap="butt" stroke-miterlimit="10" stroke-linejoin="miter" fill="none" stroke="#000000" d="M0 0-6.377 3.85C-7.22 4.359-7.524 5.448-7.053 6.269-6.582 7.09-5.506 7.346-4.663 6.837L1.714 2.987C2.557 2.478 2.861 1.389 2.39 .568 1.918-.253 .843-.509 0 0Z"/>
<path transform="matrix(1,0,0,-1,214.7558,36.307298)" d="M0 0-.199 .201C-1.008 1.016-1.003 2.345-.187 3.153L8.158 11.432C8.974 12.241 10.303 12.235 11.111 11.42L11.311 11.22C12.119 10.404 12.113 9.076 11.299 8.267L2.953-.012C2.138-.821 .809-.815 0 0"/>
<path transform="matrix(1,0,0,-1,214.7558,36.307298)" stroke-width="1" stroke-linecap="butt" stroke-miterlimit="10" stroke-linejoin="miter" fill="none" stroke="#000000" d="M0 0-.199 .201C-1.008 1.016-1.003 2.345-.187 3.153L8.158 11.432C8.974 12.241 10.303 12.235 11.111 11.42L11.311 11.22C12.119 10.404 12.113 9.076 11.299 8.267L2.953-.012C2.138-.821 .809-.815 0 0Z"/>
<path transform="matrix(1,0,0,-1,182.6527,70.1569)" stroke-width="2" stroke-linecap="butt" stroke-miterlimit="10" stroke-linejoin="miter" fill="none" stroke="#f36e2c" d="M0 0C-.133 1.199-.25 1.937-.185 3.142-.166 3.485-.151 3.646 .093 3.877 .232 4.01 .565 4.312 .924 4.276 2.584 4.111 3.22 3.791 4.651 2.875 4.764 2.803 4.888 2.733 4.999 2.659 5.029 2.638 5.058 2.62 5.086 2.603 5.348 2.449 5.624 2.779 5.426 3.009 4.225 4.409 3.308 5.919 2.447 7.572 2.03 8.374 1.697 9.471 2.463 10.055 2.655 10.201 2.89 10.278 3.131 10.302 3.895 10.376 4.587 9.993 5.231 9.612 6.475 8.875 7.682 8.076 8.844 7.214 9.629 6.632 10.619 5.911 11.19 5.138 11.241 5.069 11.147 4.987 11.085 5.046 9.154 6.894 7.556 9.088 5.935 11.19 5.186 12.161 4.766 13.214 4.587 14.407 4.531 14.781 4.631 15.169 4.881 15.452 5.776 16.467 7.819 15.663 8.827 15.014 10.477 13.952 11.564 13.041 13.138 11.931 13.806 11.459 14.368 10.864 14.937 10.277 15.523 9.674 15.813 9.348 16.008 8.713 16.067 8.522 15.848 8.363 15.685 8.479 13.645 9.923 12.055 11.878 10.731 14.008 10.296 14.709 9.861 15.438 9.728 16.251 9.595 17.065 9.832 17.993 10.512 18.46 11.101 18.865 11.903 18.842 12.569 18.582 13.235 18.32 13.894 17.874 14.475 17.457 15.873 16.455 17.762 15.655 18.527 14.308 18.623 14.139 18.441 13.946 18.269 14.035 18.17 14.085 17.92 14.263 17.852 14.327 16.805 15.323 15.864 16.34 15.323 17.681 14.988 18.51 14.798 19.578 15.64 20.139 15.799 20.245 15.98 20.314 16.167 20.351 16.874 20.49 17.531 20.252 18.19 20.071 18.974 19.854 19.78 19.714 20.59 19.651 20.852 19.631 21.143 19.626 21.275 19.985 21.323 20.116 21.333 20.257 21.317 20.396 21.233 21.108 21.089 21.815 20.885 22.503"/>
<path transform="matrix(1,0,0,-1,217.3339,73.7755)" d="M0 0 .163 .231C.825 1.169 2.135 1.395 3.073 .732L12.675-6.049C13.613-6.711 13.839-8.021 13.177-8.959L13.014-9.19C12.351-10.128 11.041-10.354 10.104-9.691L.501-2.91C-.437-2.248-.662-.938 0 0"/>
<path transform="matrix(1,0,0,-1,217.3339,73.7755)" stroke-width="1" stroke-linecap="butt" stroke-miterlimit="10" stroke-linejoin="miter" fill="none" stroke="#000000" d="M0 0 .163 .231C.825 1.169 2.135 1.395 3.073 .732L12.675-6.049C13.613-6.711 13.839-8.021 13.177-8.959L13.014-9.19C12.351-10.128 11.041-10.354 10.104-9.691L.501-2.91C-.437-2.248-.662-.938 0 0Z"/>
<path transform="matrix(1,0,0,-1,197.0995,28.701294)" d="M0 0-.283 .002C-1.431 .011-2.363 .958-2.354 2.106L-2.266 13.861C-2.257 15.009-1.31 15.941-.162 15.933L.121 15.931C1.27 15.922 2.202 14.975 2.193 13.827L2.104 2.072C2.095 .923 1.148-.009 0 0"/>
<path transform="matrix(1,0,0,-1,197.0995,28.701294)" stroke-width="1" stroke-linecap="butt" stroke-miterlimit="10" stroke-linejoin="miter" fill="none" stroke="#000000" d="M0 0-.283 .002C-1.431 .011-2.363 .958-2.354 2.106L-2.266 13.861C-2.257 15.009-1.31 15.941-.162 15.933L.121 15.931C1.27 15.922 2.202 14.975 2.193 13.827L2.104 2.072C2.095 .923 1.148-.009 0 0Z"/>
<path transform="matrix(1,0,0,-1,222.7235,56.288698)" d="M0 0-.011 .283C-.054 1.43 .851 2.404 1.999 2.446L13.746 2.88C14.894 2.923 15.867 2.019 15.909 .871L15.92 .589C15.963-.559 15.059-1.533 13.91-1.575L2.163-2.009C1.016-2.052 .042-1.147 0 0"/>
<path transform="matrix(1,0,0,-1,222.7235,56.288698)" stroke-width="1" stroke-linecap="butt" stroke-miterlimit="10" stroke-linejoin="miter" fill="none" stroke="#000000" d="M0 0-.011 .283C-.054 1.43 .851 2.404 1.999 2.446L13.746 2.88C14.894 2.923 15.867 2.019 15.909 .871L15.92 .589C15.963-.559 15.059-1.533 13.91-1.575L2.163-2.009C1.016-2.052 .042-1.147 0 0Z"/>
<path transform="matrix(1,0,0,-1,169.7191,20.443497)" d="M0 0 .227 .168C1.15 .851 2.465 .654 3.147-.269L10.138-9.72C10.821-10.644 10.624-11.958 9.701-12.641L9.474-12.809C8.55-13.492 7.236-13.295 6.553-12.372L-.437-2.92C-1.12-1.997-.923-.683 0 0"/>
<path transform="matrix(1,0,0,-1,169.7191,20.443497)" stroke-width="1" stroke-linecap="butt" stroke-miterlimit="10" stroke-linejoin="miter" fill="none" stroke="#000000" d="M0 0 .227 .168C1.15 .851 2.465 .654 3.147-.269L10.138-9.72C10.821-10.644 10.624-11.958 9.701-12.641L9.474-12.809C8.55-13.492 7.236-13.295 6.553-12.372L-.437-2.92C-1.12-1.997-.923-.683 0 0Z"/>
</g>
<text xml:space="preserve" transform="matrix(1.0011199 0 -0 .9988814 0 185)" font-size="23.051886" font-family="Comfortaa"><tspan y="-18.94409" x="77.7752 95.61736 102.37157 117.954639 124.70884 133.9757 149.55878 156.19773 162.95192 182.03888 196.23885 212.51348 219.26769 235.01442 250.59749 264.79747 280.4497 294.23475">Digital Web Agency</tspan></text>
</g>
</svg>
